<svg id="Layer_2" enable-background="new 0 0 32 32" height="512" viewBox="0 0 32 32" width="512" xmlns="http://www.w3.org/2000/svg"><g><path d="m16.26764 19.21118v-1.09851c0-1.76056-1.42261-3.16901-3.16907-3.16901l.69012-.47894c1.12677-.7605 1.8028-2.04224 1.8028-3.39429 0-1.09863-.43658-2.08459-1.15491-2.78882-.70428-.71826-1.69012-1.15485-2.78876-1.15485h-9.64782v17.32391h9.02814c2.88727.00001 5.2395-2.35216 5.2395-5.23949zm-10.59161-9.21118h4.46478c1.09863 0 1.98596.88733 1.98596 1.98584 0 1.09863-.88733 1.98596-1.98596 1.98596h-4.46478zm0 11.67603v-4.9718h4.64789c1.38031 0 2.49298 1.11261 2.49298 2.47888 0 1.38025-1.11267 2.49292-2.49298 2.49292z"/><path d="m23.61969 11.50702c-3.52112 0-6.38025 2.9859-6.38025 6.67603s2.85913 6.69019 6.38025 6.69019c2.74646 0 5.09857-1.83099 5.9859-4.39441h-3.08453c-.7464 1.85919-2.90137 1.54932-2.90137 1.54932-2.9859-.22534-2.87323-3.08453-2.87323-3.08453h9.21124c.0282-.25356.0423-.50704.0423-.76058 0-3.69012-2.85919-6.67602-6.38031-6.67602zm-2.60559 5.1972c0-1.50708 1.22534-2.73242 2.73236-2.73242 1.52106 0 2.74652 1.22534 2.74652 2.73242z"/><path d="m20.15 8.3h7.168v1.698h-7.168z"/></g></svg>