<?xml version="1.0" encoding="utf-8"?>
<!-- Generator: Adobe Illustrator 28.2.0, SVG Export Plug-In . SVG Version: 6.00 Build 0)  -->
<svg version="1.1" id="Ebene_1" xmlns="http://www.w3.org/2000/svg" xmlns:xlink="http://www.w3.org/1999/xlink" x="0px" y="0px"
	 viewBox="0 0 300 300" style="enable-background:new 0 0 300 300;" xml:space="preserve">
<style type="text/css">
	.st0{fill:#FFFFFF;}
	.st1{stroke:#000000;stroke-miterlimit:10;}
</style>
<path class="st1" d="M124.7,135.8c-10.5,0-20.6,3.9-28.3,10.9c-17.4-15.7-44.3-14.3-60,3.2c-7,7.8-10.9,18-10.9,28.5v68
	c0,1.8,0.3,2.9,2.8,2.9H51c2.2,0,2.9-0.7,2.9-2.9v-68c-0.2-7.8,6-14.3,13.8-14.6s14.3,6,14.6,13.8c0,0.3,0,0.5,0,0.8v40l0,0v27.9
	c0,1.8,0.7,2.9,2.8,2.9h22.7c2,0,2.9-1.1,2.9-2.9v-68c0-7.8,6.3-14.2,14.2-14.2s14.2,6.3,14.2,14.2v68c-0.2,1.4,0.8,2.7,2.2,2.9
	c0.2,0,0.5,0,0.7,0h22.7c2.2,0,2.8-1.2,2.8-2.9v-68C167.2,154.8,148.2,135.8,124.7,135.8z"/>
<path class="st1" d="M273.3,154.7l-15.4-15.4c-1-1-2.5-1.9-4.4,0l-40.3,40.3v-126c0.1-1.5-1.1-2.7-2.6-2.8c-0.1,0-0.2,0-0.3,0h-22.6
	c-2,0-2.9,1-2.9,2.8v192.8c0,2.2,1.2,2.9,2.9,2.9h22.6c2.6,0,2.9-1,2.9-2.9v-26.7l6.5-6.5l33.1,33.2c2.4,2.4,4,1.7,5.8,0l14.3-14.3
	c2.2-2.2,1.6-4.1,0-5.8l-33.1-33.1l33.8-33.8C274.9,157.9,274.8,156.2,273.3,154.7z"/>
</svg>
