<svg height="512pt" viewBox="0 0 512 512.00088" width="512pt" xmlns="http://www.w3.org/2000/svg" xmlns:xlink="http://www.w3.org/1999/xlink"><linearGradient id="a" gradientUnits="userSpaceOnUse" x1=".000449" x2="512.00044" y1="256" y2="256"><stop offset="0" stop-color="#80d8ff"/><stop offset="1" stop-color="#ea80fc"/></linearGradient><path d="m492 118.667969c11.046875 0 20-8.953125 20-20v-78.667969c0-10.886719-8.855469-20-20-20h-78.667969c-11.042969 0-20 8.953125-20 20s8.957031 20 20 20h30.382813l-50.710938 50.710938c-40.03125-55.796876-104.273437-90.710938-176.335937-90.710938-119.75 0-216.667969 96.90625-216.667969 216.667969 0 119.742187 96.90625 216.667969 216.667969 216.667969 51.15625 0 99.59375-17.621094 138.414062-49.96875l122.777344 122.777343c7.808594 7.808594 20.472656 7.808594 28.28125 0 7.8125-7.8125 7.8125-20.476562 0-28.285156l-122.773437-122.777344c55.207031-66.25 63.671874-155.996093 30.421874-228.585937l58.210938-58.210938v30.378906c0 11.046876 8.953125 20.003907 20 20.003907zm-275.332031-78.667969c61.5625 0 115.863281 31.660156 147.5 79.546875l-108.167969 108.167969-64.523438-64.523438c-7.8125-7.808594-20.472656-7.808594-28.285156 0l-112.898437 112.898438c-41.054688-114.605469 44.324219-236.089844 166.375-236.089844zm0 353.332031c-61.566407 0-115.863281-31.660156-147.5-79.546875l108.167969-108.167968 64.523437 64.523437c7.808594 7.8125 20.472656 7.8125 28.28125 0l112.898437-112.898437c41.058594 114.605468-44.320312 236.089843-166.371093 236.089843zm0 0" fill="url(#a)"/></svg>