<svg height="512" viewBox="0 0 64 64" width="512" xmlns="http://www.w3.org/2000/svg" xmlns:xlink="http://www.w3.org/1999/xlink"><linearGradient id="New_Gradient_Swatch" gradientUnits="userSpaceOnUse" x1="-6.341" x2="55.782" y1="60.693" y2="-1.43"><stop offset="0" stop-color="#ab20ec"/><stop offset="1" stop-color="#0071fc"/></linearGradient><linearGradient id="New_Gradient_Swatch-2" x1="2.983" x2="65.106" xlink:href="#New_Gradient_Swatch" y1="70.017" y2="7.894"/><linearGradient id="New_Gradient_Swatch-3" x1="2.733" x2="64.856" xlink:href="#New_Gradient_Swatch" y1="69.767" y2="7.644"/><linearGradient id="New_Gradient_Swatch-4" x1="-10.017" x2="52.106" xlink:href="#New_Gradient_Swatch" y1="57.017" y2="-5.106"/><linearGradient id="New_Gradient_Swatch-5" x1="-1.511" x2="60.612" xlink:href="#New_Gradient_Swatch" y1="65.523" y2="3.4"/><linearGradient id="New_Gradient_Swatch-7" x1="-18.523" x2="43.6" xlink:href="#New_Gradient_Swatch" y1="48.511" y2="-13.612"/><linearGradient id="New_Gradient_Swatch-8" x1="-10.021" x2="52.103" xlink:href="#New_Gradient_Swatch" y1="57.014" y2="-5.11"/><linearGradient id="New_Gradient_Swatch-9" x1="-16.517" x2="45.606" xlink:href="#New_Gradient_Swatch" y1="50.517" y2="-11.606"/><linearGradient id="New_Gradient_Swatch-10" x1="-3.517" x2="58.606" xlink:href="#New_Gradient_Swatch" y1="63.517" y2="1.394"/><linearGradient id="New_Gradient_Swatch-12" x1="-3.017" x2="59.106" xlink:href="#New_Gradient_Swatch" y1="64.017" y2="1.894"/><linearGradient id="New_Gradient_Swatch-13" x1="1.233" x2="63.356" xlink:href="#New_Gradient_Swatch" y1="68.267" y2="6.144"/><linearGradient id="New_Gradient_Swatch-14" x1="4.233" x2="66.356" xlink:href="#New_Gradient_Swatch" y1="71.267" y2="9.144"/><g id="Gradient_ok"><path d="m25 63c-.084 0-.167 0-.251 0a8.22 8.22 0 0 1 -7.749-8.29v-10.22a5.147 5.147 0 0 0 -2.6-4.39 20.85 20.85 0 0 1 -10.4-17.744 21.005 21.005 0 0 1 40.677-7.707 1 1 0 1 1 -1.873.7 18.955 18.955 0 0 0 -18.841-12.32 19.146 19.146 0 0 0 -17.963 19.294 18.862 18.862 0 0 0 9.406 16.055 7.152 7.152 0 0 1 3.594 6.112v10.22a6.2 6.2 0 0 0 5.812 6.29 6.083 6.083 0 0 0 4.365-1.69 5.958 5.958 0 0 0 1.823-4.31v-10.51a6.93 6.93 0 0 1 3.455-6.028 19.115 19.115 0 0 0 8.35-9.815 1 1 0 1 1 1.871.706 21.106 21.106 0 0 1 -9.229 10.847 4.933 4.933 0 0 0 -2.447 4.29v10.51a8 8 0 0 1 -8 8z" fill="url(#New_Gradient_Swatch)"/><path d="m32 49h-14a1 1 0 0 1 0-2h14a1 1 0 0 1 0 2z" fill="url(#New_Gradient_Swatch-2)"/><path d="m23 53h-5a1 1 0 0 1 0-2h5a1 1 0 0 1 0 2z" fill="url(#New_Gradient_Swatch-3)"/><path d="m22 35.65a1.014 1.014 0 0 1 -.23-.026 14.055 14.055 0 0 1 -10.4-10.4 1 1 0 1 1 1.947-.458 12.043 12.043 0 0 0 8.906 8.906 1 1 0 0 1 -.223 1.978z" fill="url(#New_Gradient_Swatch-4)"/><path d="m28 35.65a1 1 0 0 1 -.228-1.973 12.043 12.043 0 0 0 8.906-8.906 1 1 0 1 1 1.947.458 14.055 14.055 0 0 1 -10.4 10.4 1.014 1.014 0 0 1 -.225.021z" fill="url(#New_Gradient_Swatch-5)"/><path d="m37.649 20a1 1 0 0 1 -.972-.771 12.043 12.043 0 0 0 -8.906-8.906 1 1 0 1 1 .458-1.947 14.055 14.055 0 0 1 10.4 10.4 1 1 0 0 1 -.745 1.2 1.06 1.06 0 0 1 -.235.024z" fill="url(#New_Gradient_Swatch-4)"/><path d="m12.351 20a1.06 1.06 0 0 1 -.23-.026 1 1 0 0 1 -.745-1.2 14.055 14.055 0 0 1 10.4-10.4 1 1 0 1 1 .458 1.947 12.043 12.043 0 0 0 -8.906 8.906 1 1 0 0 1 -.977.773z" fill="url(#New_Gradient_Swatch-7)"/><path d="m25 27a5 5 0 1 1 3.3-8.753 1 1 0 1 1 -1.317 1.506 3 3 0 1 0 0 4.494 1 1 0 1 1 1.317 1.506 5.014 5.014 0 0 1 -3.3 1.247z" fill="url(#New_Gradient_Swatch-8)"/><path d="m25 13a1 1 0 0 1 -1-1v-6a1 1 0 0 1 2 0v6a1 1 0 0 1 -1 1z" fill="url(#New_Gradient_Swatch-9)"/><path d="m25 39a1 1 0 0 1 -1-1v-6a1 1 0 0 1 2 0v6a1 1 0 0 1 -1 1z" fill="url(#New_Gradient_Swatch-10)"/><path d="m15 23h-6a1 1 0 0 1 0-2h6a1 1 0 0 1 0 2z" fill="url(#New_Gradient_Swatch-9)"/><path d="m53 23h-28a1 1 0 0 1 0-2h28a1 1 0 0 1 0 2z" fill="url(#New_Gradient_Swatch-12)"/><path d="m53 23a1 1 0 0 1 -.707-1.707l4.293-4.293h-8.172l-5.707 5.707a1 1 0 0 1 -1.414-1.414l6-6a1 1 0 0 1 .707-.293h11a1 1 0 0 1 .707 1.707l-6 6a1 1 0 0 1 -.707.293z" fill="url(#New_Gradient_Swatch-13)"/><path d="m59 29h-11a1 1 0 0 1 -.707-.293l-6-6a1 1 0 0 1 1.414-1.414l5.707 5.707h8.172l-4.293-4.293a1 1 0 0 1 1.414-1.414l6 6a1 1 0 0 1 -.707 1.707z" fill="url(#New_Gradient_Swatch-14)"/></g></svg>